<?xml version="1.0" standalone="no"?><svg xmlns="http://www.w3.org/2000/svg" viewBox="0 0 1440 320"><path fill="#4FBF60" fill-opacity="1" d="M0,224L40,202.7C80,181,160,139,240,154.7C320,171,400,245,480,250.7C560,256,640,192,720,170.7C800,149,880,171,960,160C1040,149,1120,107,1200,74.7C1280,43,1360,21,1400,10.7L1440,0L1440,320L1400,320C1360,320,1280,320,1200,320C1120,320,1040,320,960,320C880,320,800,320,720,320C640,320,560,320,480,320C400,320,320,320,240,320C160,320,80,320,40,320L0,320Z"></path></svg>